<svg width="15" height="15" viewBox="0 0 15 15" fill="none" xmlns="http://www.w3.org/2000/svg">
<path d=
"M 14.2022 7.83286C14.2022 8.32939 14.083 8.78985 13.8444 9.21148C13.6059 9.63311 13.2869 9.9632 12.8847 10.1934C12.8958 10.2683 12.9013 10.3848 12.9013 10.5429C12.9013 11.2947 12.6489 11.9327 12.1496 12.4597C11.6475 12.9895 11.0428 13.253 10.3355 13.253C10.0192 13.253 9.71689 13.1948 9.43118 13.0783C9.20927 13.5332 8.89027 13.8993 8.47142 14.1795C8.05534 14.4624 7.59765 14.6011 7.10112 14.6011C6.5935 14.6011 6.13304 14.4652 5.72251 14.1878C5.3092 13.9132 4.99298 13.5443 4.77107 13.0783C4.48536 13.1948 4.18578 13.253 3.86678 13.253C3.15944 13.253 2.55197 12.9895 2.04435 12.4597C1.53673 11.9327 1.2843 11.2919 1.2843 10.5429C1.2843 10.4597 1.2954 10.3432 1.31482 10.1934C0.912605 9.96043 0.59361 9.63311 0.355056 9.21148C0.119277 8.78985 0 8.32939 0 7.83286C0 7.30583 0.133146 6.8204 0.396664 6.38213C0.660183 5.94385 1.01524 5.61931 1.45906 5.4085C1.34256 5.09227 1.2843 4.77328 1.2843 4.45706C1.2843 3.70811 1.53673 3.06735 2.04435 2.54031C2.55197 2.01327 3.15944 1.74698 3.86678 1.74698C4.18301 1.74698 4.48536 1.80523 4.77107 1.92173C4.99298 1.46682 5.31197 1.10067 5.73083 0.820505C6.14691 0.540344 6.6046 0.398876 7.10112 0.398876C7.59765 0.398876 8.05534 0.540344 8.47142 0.817731C8.8875 1.09789 9.20927 1.46404 9.43118 1.91896C9.71689 1.80246 10.0165 1.74421 10.3355 1.74421C11.0428 1.74421 11.6475 2.00772 12.1496 2.53753C12.6517 3.06735 12.9013 3.70534 12.9013 4.45428C12.9013 4.80379 12.8486 5.12001 12.7432 5.40572C13.187 5.61654 13.5421 5.94108 13.8056 6.37935C14.0691 6.8204 14.2022 7.30583 14.2022 7.83286ZM6.79877 9.97152L9.73076 5.58048C9.80565 5.46397 9.82784 5.33638 9.80288 5.20046C9.77514 5.06454 9.70579 4.95635 9.58929 4.88423C9.47279 4.80934 9.34519 4.78437 9.20927 4.80379C9.07058 4.82598 8.95962 4.89256 8.8764 5.00906L6.29393 8.89249L5.10393 7.70527C4.99852 7.59986 4.87647 7.54993 4.74055 7.55548C4.60186 7.56102 4.48258 7.61095 4.37718 7.70527C4.28286 7.79958 4.23571 7.91885 4.23571 8.0631C4.23571 8.20456 4.28286 8.32384 4.37718 8.42093L6.01099 10.0547L6.09143 10.1185C6.18574 10.1823 6.28283 10.2129 6.37714 10.2129C6.56299 10.2101 6.70446 10.1324 6.79877 9.97152Z" 
fill="#1DA1F2"/>
</svg>
